#!OML:ASF Y:\EmotionMaleHayes\Project 1\Capture day 1\Session 1\Male1.ASF
:FULLY-SPECIFIED
:DEGREES
296
root -28.393 16.6162 2.00765 -77.887 85.9685 -78.4588
lowerback 11.0314 3.04069 4.18555
upperback 2.76852 4.63562 0.904737
thorax -3.02233 2.3247 -2.02038
lowerneck -19.7237 0.497483 2.6788
upperneck 21.3433 0.591661 -2.33363
head 10.0768 0.26696 -1.17525
rclavicle 1.75427e-014 6.55989e-015
rhumerus -28.7218 9.10514 -89.7885
rradius 33.5716
rwrist -0.885413
rhand -9.06719 -32.5341
rfingers 7.12502
rthumb 16.8818 -61.8203
lclavicle 1.75427e-014 6.55989e-015
lhumerus -41.8676 -3.18461 87.7421
lradius 26.4898
lwrist -10.2072
lhand -13.1759 -25.8783
lfingers 7.12502
lthumb 12.9237 3.70154
rfemur 11.9031 -4.50814 23.1747
rtibia 9.04218
rfoot -27.5673 -1.94821
rtoes 5.98722
lfemur -27.526 6.77615 -10.7913
ltibia 40.7365
lfoot -12.7744 6.98189
ltoes -10.7967
297
root -28.3191 16.6012 2.0093 -71.6235 85.7633 -72.5064
lowerback 10.8928 3.27055 4.30122
upperback 2.77323 4.93979 0.809284
thorax -2.9037 2.47742 -2.20979
lowerneck -19.9596 0.441135 2.80039
upperneck 21.2594 0.475369 -2.39337
head 10.0875 0.212043 -1.23359
rclavicle -2.78795e-014 3.97569e-016
rhumerus -28.1656 9.35248 -89.8954
rradius 33.915
rwrist -1.29706
rhand -9.28873 -32.2405
rfingers 7.12502
rthumb 16.6685 -61.5448
lclavicle -2.78795e-014 3.97569e-016
lhumerus -42.0942 -3.07682 87.5241
lradius 26.2852
lwrist -10.7895
lhand -12.851 -25.8505
lfingers 7.12502
lthumb 13.2368 3.70924
rfemur 11.8423 -4.37369 23.2231
rtibia 8.99667
rfoot -27.6616 -1.69014
rtoes 5.85148
lfemur -28.2142 6.98486 -10.6584
ltibia 39.2104
lfoot -12.2477 7.13358
ltoes -12.0494
298
root -28.2362 16.5798 2.00637 -67.755 85.5957 -68.9825
lowerback 10.675 3.35278 4.48299
upperback 2.69018 5.05351 0.76669
thorax -2.84313 2.53158 -2.35524
lowerneck -19.8659 0.468414 2.6414
upperneck 21.1498 0.544028 -2.31869
head 10.0324 0.239132 -1.16988
rclavicle -4.10242e-014 1.66979e-014
rhumerus -27.78 9.89494 -90.0109
rradius 34.2949
rwrist -1.77582
rhand -9.34529 -32.1578
rfingers 7.12502
rthumb 16.614 -61.4667
lclavicle -4.10242e-014 1.66979e-014
lhumerus -42.484 -2.53554 87.271
lradius 25.9498
lwrist -11.6075
lhand -13.7768 -26.3708
lfingers 7.12502
lthumb 12.3443 3.2448
rfemur 11.7856 -4.08685 23.3522
rtibia 8.95974
rfoot -27.8199 -1.82507
rtoes 4.94452
lfemur -28.9445 7.07976 -10.5402
ltibia 37.7237
lfoot -11.8636 7.16012
ltoes -11.9116
299
root -28.1617 16.5609 2.00049 -63.6895 85.2767 -65.0752
lowerback 10.7369 3.47513 4.73839
upperback 2.71547 5.24754 0.780265
thorax -2.81521 2.62848 -2.50791
lowerneck -19.9336 0.446796 2.46668
upperneck 21.026 0.548984 -2.27321
head 10.0002 0.230046 -1.12358
rclavicle -6.77607e-014 -3.12092e-014
rhumerus -27.3496 10.3118 -89.9614
rradius 34.939
rwrist -2.20206
rhand -9.12368 -32.3005
rfingers 7.12502
rthumb 16.8274 -61.5913
lclavicle -6.77607e-014 -3.12092e-014
lhumerus -42.6187 -2.08026 87.1351
lradius 25.48
lwrist -12.2639
lhand -12.3772 -26.1259
lfingers 7.12502
lthumb 13.6935 3.40357
rfemur 11.7651 -3.86755 23.5165
rtibia 9.10777
rfoot -28.0169 -1.76265
rtoes 4.31559
lfemur -29.4818 7.18921 -10.2697
ltibia 36.3397
lfoot -11.44 7.20821
ltoes -10.2684
300
root -28.0701 16.5483 2.00891 -66.8031 85.2295 -68.1696
lowerback 10.8681 3.41746 4.76319
upperback 2.78062 5.18619 0.861437
thorax -2.82944 2.6002 -2.43776
lowerneck -20.0208 0.452467 2.5579
upperneck 20.8891 0.570333 -2.47859
head 9.96874 0.2198 -1.20765
rclavicle -4.07509e-015 -1.72943e-014
rhumerus -27.0183 10.638 -89.8849
rradius 35.6068
rwrist -2.50953
rhand -8.87108 -32.4004
rfingers 7.12502
rthumb 17.0705 -61.6704
lclavicle -4.07509e-015 -1.72943e-014
lhumerus -42.9518 -1.67331 87.0135
lradius 25.2358
lwrist -12.7839
lhand -12.4303 -26.0074
lfingers 7.12502
lthumb 13.6423 3.52549
rfemur 12.3647 -4.01023 23.6944
rtibia 8.7506
rfoot -28.131 -1.82711
rtoes 4.31691
lfemur -29.8186 6.95723 -10.0372
ltibia 34.944
lfoot -11.0601 6.83697
ltoes -9.15407
301
root -27.9819 16.5311 2.00891 -65.868 85.2344 -67.4102
lowerback 10.8264 3.47211 4.73889
upperback 2.76394 5.2501 0.798408
thorax -2.81538 2.63152 -2.49437
lowerneck -19.8194 0.413852 2.60723
upperneck 20.5556 0.498659 -2.49439
head 9.81107 0.186837 -1.22865
rclavicle -4.00551e-014 -2.0276e-014
rhumerus -26.647 10.9486 -89.9015
rradius 36.07
rwrist -2.7506
rhand -8.89372 -32.3892
rfingers 7.12502
rthumb 17.0487 -61.6611
lclavicle -4.00551e-014 -2.0276e-014
lhumerus -43.3435 -1.37899 86.8024
lradius 25.0043
lwrist -13.5281
lhand -12.7218 -25.978
lfingers 7.12502
lthumb 13.3613 3.57359
rfemur 12.6036 -4.1764 23.539
rtibia 8.626
rfoot -28.2398 -1.54292
rtoes 4.49495
lfemur -30.3298 6.88561 -10.0397
ltibia 33.5186
lfoot -11.07 6.54671
ltoes -7.16152
302
root -27.898 16.5091 2.00693 -62.1401 85.0842 -63.9234
lowerback 10.7915 3.58819 4.78939
upperback 2.7139 5.40351 0.72765
thorax -2.82517 2.70514 -2.61243
lowerneck -19.7045 0.42648 2.46826
upperneck 20.3611 0.522609 -2.36063
head 9.7212 0.201548 -1.1537
rclavicle 1.63997e-015 2.5842e-015
rhumerus -26.2608 11.3902 -89.9461
rradius 36.5829
rwrist -3.08054
rhand -9.0624 -32.407
rfingers 7.12502
rthumb 16.8864 -61.6929
lclavicle 1.63997e-015 2.5842e-015
lhumerus -43.6175 -1.07846 86.5886
lradius 24.5882
lwrist -14.2873
lhand -12.0138 -25.8691
lfingers 7.12502
lthumb 14.0437 3.63647
rfemur 12.6619 -3.90766 23.552
rtibia 8.57253
rfoot -28.3855 -1.37367
rtoes 5.20283
lfemur -30.8342 6.97266 -9.92313
ltibia 31.9802
lfoot -10.5276 6.49302
ltoes -7.74581
303
root -27.8016 16.488 2.00542 -60.1776 84.7998 -62.0911
lowerback 10.7681 3.6436 5.06547
upperback 2.72898 5.50254 0.658674
thorax -2.75561 2.7557 -2.84417
lowerneck -19.7969 0.440853 2.39422
upperneck 20.2528 0.518381 -2.20331
head 9.69924 0.209707 -1.08666
rclavicle -4.53974e-014 -4.67144e-015
rhumerus -25.847 11.6538 -90.0523
rradius 37.1639
rwrist -3.43933
rhand -9.15236 -32.6249
rfingers 7.12502
rthumb 16.7998 -61.9181
lclavicle -4.53974e-014 -4.67144e-015
lhumerus -43.8474 -0.735897 86.2594
lradius 24.2065
lwrist -14.8308
lhand -11.9083 -25.9915
lfingers 7.12502
lthumb 14.1454 3.50698
rfemur 12.911 -3.81164 23.6833
rtibia 8.49565
rfoot -28.5938 -1.15702
rtoes 5.20161
lfemur -31.1215 7.03767 -9.55028
ltibia 30.3712
lfoot -10.3698 6.37015
ltoes -8.53632
304
root -27.7033 16.4674 2.00614 -61.5072 84.5924 -63.4664
lowerback 10.7716 3.63109 5.25676
upperback 2.81104 5.51062 0.734462
thorax -2.66054 2.7651 -2.86831
lowerneck -19.8755 0.408053 2.38012
upperneck 20.1336 0.502564 -2.33937
head 9.6713 0.182943 -1.13371
rclavicle -1.43373e-014 -7.45443e-016
rhumerus -25.2982 11.948 -89.9951
rradius 37.601
rwrist -3.77818
rhand -9.29837 -32.7652
rfingers 7.12502
rthumb 16.6592 -62.0703
lclavicle -1.43373e-014 -7.45443e-016
lhumerus -43.9505 -0.0607624 85.907
lradius 23.7141
lwrist -15.7066
lhand -13.3252 -26.6465
lfingers 7.12502
lthumb 12.7797 2.94236
rfemur 13.3269 -4.02082 23.835
rtibia 8.38882
rfoot -28.8688 -0.959578
rtoes 4.7283
lfemur -31.374 6.92812 -9.11717
ltibia 28.9081
lfoot -9.97442 6.04864
ltoes -6.698
305
root -27.5984 16.4433 2.00589 -62.4003 84.4633 -64.4859
lowerback 10.6826 3.60855 5.41469
upperback 2.86305 5.49163 0.730592
thorax -2.54348 2.76072 -2.94729
lowerneck -19.9703 0.37337 2.33429
upperneck 20.0311 0.461946 -2.34442
head 9.6512 0.157619 -1.1333
rclavicle -3.28492e-014 1.28216e-014
rhumerus -24.7324 12.3027 -90.0341
rradius 38.0346
rwrist -3.99841
rhand -9.43396 -32.5459
rfingers 7.12502
rthumb 16.5287 -61.8619
lclavicle -3.28492e-014 1.28216e-014
lhumerus -44.0864 0.572371 85.4907
lradius 23.2563
lwrist -16.6061
lhand -11.5679 -26.5484
lfingers 7.12502
lthumb 14.4733 2.92679
rfemur 13.7311 -4.08566 23.9663
rtibia 8.17275
rfoot -29.0556 -0.899583
rtoes 4.50558
lfemur -31.6982 6.82976 -8.81657
ltibia 27.5698
lfoot -9.96386 5.72604
ltoes -6.15172
306
root -27.4861 16.4095 2.00287 -60.0644 84.3305 -62.5008
lowerback 10.33 3.67545 5.35833
upperback 2.83418 5.5476 0.690374
thorax -2.37634 2.79199 -2.93629
lowerneck -20.1422 0.412251 2.33064
upperneck 20.0431 0.505141 -2.32091
head 9.6879 0.178195 -1.1191
rclavicle 8.74653e-015 -6.16232e-015
rhumerus -24.3087 12.7391 -90.0922
rradius 38.623
rwrist -4.27723
rhand -9.49227 -32.6519
rfingers 7.12502
rthumb 16.4725 -61.9725
lclavicle 8.74653e-015 -6.16232e-015
lhumerus -44.3734 1.03823 85.2254
lradius 22.9684
lwrist -17.0674
lhand -12.7737 -27.0494
lfingers 7.12502
lthumb 13.3113 2.50544
rfemur 13.8697 -4.01635 23.9434
rtibia 8.02163
rfoot -29.2749 -0.720114
rtoes 4.03678
lfemur -32.2561 6.93729 -8.6848
ltibia 26.3836
lfoot -10.2309 5.4975
ltoes -8.06251
